<?xml version="1.0" encoding="utf-8"?>
<!-- Generator: Adobe Illustrator 19.0.0, SVG Export Plug-In . SVG Version: 6.00 Build 0)  -->
<svg version="1.1" id="Plannet" xmlns="http://www.w3.org/2000/svg" xmlns:xlink="http://www.w3.org/1999/xlink" x="0px" y="0px"
	 viewBox="0 0 640 480" style="enable-background:new 0 0 640 480;" xml:space="preserve">
<style type="text/css">
	.st0{fill:#144034;}
	.st1{fill:#4C96A8;}
</style>
<path id="Round" class="st0" d="M461.4,210c10.8,78.7-56.6,159.5-141.4,171.2c-84.8,11.7-147.8-38.9-158.6-117.6
	C150.6,184.9,214.2,109.7,299,98S450.6,131.3,461.4,210z"/>
<path id="Ring" class="st1" d="M602.8,44.4c-13.1-19.3-81.9,0.5-172.8,47.3c3.5,13.2,8.2,26,12,39.7c0,0.1,0,0.2,0,0.3
	c15-5,25.3-5.4,29,0.3c12.4,19.1-46.6,80.4-133.5,137S167.4,363.6,155,344.5c-5.3-8.1,1.1-22.1,17.9-39.5
	c-0.4-1.9-7.3-12.2-10.6-35.3C69.4,346.5,14.4,413,29,434.5c19.9,29.3,165-38.3,324-146.5S622.7,73.7,602.8,44.4z"/>
</svg>
